<?xml version="1.0" standalone="no"?>
<!DOCTYPE svg PUBLIC "-//W3C//DTD SVG 20010904//EN"
 "http://www.w3.org/TR/2001/REC-SVG-20010904/DTD/svg10.dtd">
<svg version="1.0" xmlns="http://www.w3.org/2000/svg"
 width="192.000000pt" height="192.000000pt" viewBox="0 0 192.000000 192.000000"
 preserveAspectRatio="xMidYMid meet">
<metadata>
Created by potrace 1.11, written by Peter Selinger 2001-2013
</metadata>
<g transform="translate(0.000000,192.000000) scale(0.100000,-0.100000)"
fill="#000000" stroke="none">
<path d="M855 1830 c-104 -14 -187 -40 -282 -85 -221 -107 -383 -301 -459
-551 -25 -80 -27 -104 -27 -239 0 -134 2 -159 26 -238 92 -301 298 -507 602
-603 83 -26 103 -29 245 -29 142 0 162 3 245 29 156 49 253 105 364 210 329
314 361 823 76 1184 -181 228 -508 362 -790 322z m6 -507 l99 -97 99 97 c54
53 106 97 117 97 24 0 244 -220 244 -244 0 -11 -44 -63 -97 -117 l-97 -99 97
-99 c53 -54 97 -107 97 -117 0 -26 -219 -244 -245 -244 -12 0 -59 39 -117 97
l-98 98 -98 -98 c-57 -57 -106 -97 -117 -97 -27 0 -245 218 -245 245 0 12 39
59 97 117 l98 98 -99 99 c-83 83 -98 103 -93 123 8 30 218 238 242 238 10 0
62 -44 116 -97z"/>
<path d="M662 1257 l-82 -82 83 -83 82 -82 83 83 82 82 -83 83 -82 82 -83 -83z"/>
<path d="M942 1093 c-22 -9 -34 -41 -22 -63 23 -44 101 -12 84 35 -5 13 -36
37 -46 34 -2 0 -9 -3 -16 -6z"/>
<path d="M840 990 c-24 -24 -24 -30 -7 -54 9 -12 23 -17 42 -14 25 2 31 8 33
33 3 19 -2 33 -14 42 -24 17 -30 17 -54 -7z"/>
<path d="M1033 999 c-23 -8 -29 -32 -17 -63 9 -24 61 -21 74 5 21 38 -15 74
-57 58z"/>
<path d="M933 903 c-21 -8 -16 -61 7 -73 30 -16 60 4 60 39 0 35 -29 50 -67
34z"/>
<path d="M1092 827 l-82 -82 83 -83 82 -82 83 83 82 82 -83 83 -82 82 -83 -83z"/>
</g>
</svg>
